<?xml version="1.0" encoding="utf-8"?>
<!-- Generator: Adobe Illustrator 16.0.0, SVG Export Plug-In . SVG Version: 6.00 Build 0)  -->
<!DOCTYPE svg PUBLIC "-//W3C//DTD SVG 1.1//EN" "http://www.w3.org/Graphics/SVG/1.1/DTD/svg11.dtd">
<svg version="1.1" id="Layer_1" xmlns="http://www.w3.org/2000/svg" xmlns:xlink="http://www.w3.org/1999/xlink" x="0px" y="0px"
	 width="135.308px" height="134.808px" viewBox="0 0 135.308 134.808" enable-background="new 0 0 135.308 134.808"
	 xml:space="preserve">
<path fill-rule="evenodd" clip-rule="evenodd" fill="none" d="M125.218,84.812H84.312v40.906c0,5.02-4.07,9.09-9.09,9.09H61.586
	c-5.02,0-9.09-4.07-9.09-9.09V84.812H11.59c-5.02,0-9.09-4.07-9.09-9.09V62.086c0-5.02,4.07-9.09,9.09-9.09h40.906V12.09
	c0-5.02,4.07-9.09,9.09-9.09h13.636c5.02,0,9.09,4.07,9.09,9.09v40.906h40.906c5.02,0,9.09,4.07,9.09,9.09v13.636
	C134.308,80.742,130.237,84.812,125.218,84.812z"/>
</svg>
