<?xml version="1.0" encoding="utf-8"?>
<!-- Generator: Adobe Illustrator 16.0.0, SVG Export Plug-In . SVG Version: 6.00 Build 0)  -->
<!DOCTYPE svg PUBLIC "-//W3C//DTD SVG 1.1//EN" "http://www.w3.org/Graphics/SVG/1.1/DTD/svg11.dtd">
<svg version="1.1" id="Layer_1" xmlns="http://www.w3.org/2000/svg" xmlns:xlink="http://www.w3.org/1999/xlink" x="0px" y="0px"
	 width="200px" height="200px" viewBox="0 0 200 200" enable-background="new 0 0 200 200" xml:space="preserve">
<path fill="none" d="M185.69,0H12.805C5.733,0,0,5.76,0,12.862v173.621c0,7.103,5.733,12.862,12.805,12.862H185.69
	c7.076,0,12.809-5.76,12.809-12.862V12.862C198.499,5.76,192.767,0,185.69,0z M168.896,102.512h-22.622v82.373h-33.887v-82.373
	H95.453V74.123h16.934V57.076c0-23.16,9.559-36.928,36.719-36.928h22.623v28.389h-14.138c-10.579,0-11.271,3.967-11.271,11.368
	l-0.047,14.211h25.616L168.896,102.512z"/>
</svg>
