<?xml version="1.0" encoding="utf-8"?>
<!-- Generator: Adobe Illustrator 16.0.0, SVG Export Plug-In . SVG Version: 6.00 Build 0)  -->
<!DOCTYPE svg PUBLIC "-//W3C//DTD SVG 1.1//EN" "http://www.w3.org/Graphics/SVG/1.1/DTD/svg11.dtd">
<svg version="1.1" id="Layer_1" xmlns="http://www.w3.org/2000/svg" xmlns:xlink="http://www.w3.org/1999/xlink" x="0px" y="0px"
	 width="135.308px" height="159.56px" viewBox="0 0 135.308 159.56" enable-background="new 0 0 135.308 159.56"
	 xml:space="preserve">
<path fill="none" d="M133.602,32.313c-1.064-0.833-2.435-1.028-3.652-0.501L71.722,57.097c-2.529,1.106-5.701,1.638-8.956,1.638
	c-4.539,0.013-9.232-1.044-12.506-2.491c-1.169-0.501-2.145-1.062-2.839-1.563c0.253-0.128,0.544-0.255,0.88-0.387l52.954-22.996
	l7.899,3.391v-9.909c0-1.473-0.639-2.87-1.71-3.698c-1.057-0.835-2.441-1.028-3.645-0.501L45.58,45.866
	c-1.799,0.731-3.341,1.62-4.647,2.919c-1.287,1.257-2.393,3.336-2.375,5.647c0,0.059,0.018,0.163,0.018,0.163v89.042
	c0,0.036-0.012,0.071-0.012,0.114c0,0.028,0.012,0.043,0.012,0.071v0.093h0.011c0.127,3.112,1.687,5.098,3.182,6.496
	c4.708,4.162,12.605,6.486,20.999,6.607c3.978,0,8.013-0.604,11.761-2.21l58.235-25.292c1.538-0.661,2.545-2.313,2.545-4.184V36.02
	C135.3,34.543,134.661,33.148,133.602,32.313z M96.68,15.388c-0.104-1.338-0.657-2.595-1.635-3.362
	c-1.064-0.832-2.435-1.028-3.655-0.503L33.169,36.81c-2.533,1.101-5.711,1.638-8.959,1.638c-4.538,0.005-9.232-1.051-12.505-2.497
	c-1.162-0.496-2.145-1.057-2.839-1.56c0.253-0.125,0.55-0.251,0.88-0.385L62.708,11.01l7.89,3.391V4.493
	c0-1.473-0.639-2.868-1.708-3.698c-1.058-0.835-2.452-1.028-3.651-0.502L7.014,25.579c-1.795,0.727-3.332,1.612-4.639,2.92
	C1.083,29.757-0.021,31.834,0,34.146c0,0.064,0.018,0.162,0.018,0.162v89.041c0,0.035-0.005,0.078-0.005,0.114
	c0,0.028,0.005,0.043,0.005,0.074v0.097h0.013c0.126,3.112,1.685,5.098,3.18,6.496c4.708,4.162,12.605,6.482,21.008,6.604
	c2.267,0,4.544-0.271,6.785-0.738v-81.4c-0.061-4.233,1.626-8.295,4.592-11.221c1.922-1.904,4.267-3.409,7.173-4.569L96.68,15.388z"
	/>
</svg>
