<?xml version="1.0" encoding="utf-8"?>
<!-- Generator: Adobe Illustrator 16.0.0, SVG Export Plug-In . SVG Version: 6.00 Build 0)  -->
<!DOCTYPE svg PUBLIC "-//W3C//DTD SVG 1.1//EN" "http://www.w3.org/Graphics/SVG/1.1/DTD/svg11.dtd">
<svg version="1.1" id="Layer_1" xmlns="http://www.w3.org/2000/svg" xmlns:xlink="http://www.w3.org/1999/xlink" x="0px" y="0px"
	 width="200px" height="200px" viewBox="0 0 200 200" enable-background="new 0 0 200 200" xml:space="preserve">
<radialGradient id="path4463_1_" cx="1.166" cy="200.7158" r="0.2725" gradientTransform="matrix(963.1543 0 0 -963.1543 -1113.5 193319)" gradientUnits="userSpaceOnUse">
	<stop  offset="0" style="stop-color:#FFFFFF"/>
	<stop  offset="0.81" style="stop-color:#EBEAEA"/>
	<stop  offset="0.81" style="stop-color:#EBEAEA"/>
	<stop  offset="1" style="stop-color:#D5D4D4"/>
</radialGradient>
<path id="path4463" fill="url(#path4463_1_)" d="M63.907,112.532c6.004-11.768,12.827-25.029,18.29-38.344l0,0l2.159-5.253
	c-7.134-27.148-11.412-48.943-7.59-63.032l0,0C77.795,2.228,82.05,0,86.599,0l0,0l2.771,0.039h0.51
	c6.229-0.093,9.162,7.83,9.494,10.909l0,0c0.549,5.129-1.826,13.81-1.826,13.81l0,0c0-3.505,0.14-9.168-2.073-14.058l0,0
	c-2.577-5.655-5.037-9.036-7.242-9.57l0,0c-1.113,0.743-2.197,2.282-2.568,5.246l0,0c-0.766,4.155-0.999,9.4-0.999,12.101l0,0
	c0,9.555,1.88,22.158,5.579,35.156l0,0c0.696-2.012,1.308-3.946,1.795-5.756l0,0c0.758-2.855,5.579-21.779,5.579-21.779l0,0
	c0,0-1.215,25.191-2.91,32.813l0,0c-0.363,1.609-0.766,3.203-1.183,4.835l0,0c6.096,17.029,15.914,32.224,27.627,43.164l0,0
	c4.62,4.316,10.453,7.799,15.979,10.971l0,0c12.053-1.726,23.155-2.537,32.417-2.437l0,0c12.286,0.162,21.307,1.979,24.958,5.578
	l0,0c1.788,1.748,2.516,3.86,2.739,6.229l0,0c0.054,0.92-0.395,3.087-0.527,3.628l0,0c0.133-0.657,0.133-3.892-9.731-7.04l0,0
	c-7.768-2.484-22.307-2.406-39.752-0.55l0,0c20.178,9.872,39.838,14.777,46.064,11.838l0,0c1.524-0.743,3.374-3.272,3.374-3.272l0,0
	c0,0-1.1,4.989-1.887,6.235l0,0c-1.006,1.354-2.979,2.824-4.853,3.318l0,0c-9.84,2.624-35.45-3.45-57.777-16.207l0,0
	c-24.945,3.674-52.341,10.459-74.298,17.662l0,0c-21.578,37.817-37.802,55.188-51.001,48.58l0,0l-4.851-2.437
	c-1.973-1.13-2.275-3.877-1.818-6.113l0,0c1.539-7.527,10.979-18.87,29.941-30.188l0,0c2.042-1.238,11.133-6.043,11.133-6.043l0,0
	c0,0-6.731,6.515-8.309,7.792l0,0c-15.133,12.401-26.306,28.007-26.027,34.057l0,0l0.054,0.526
	C19.838,187.2,39.118,161.035,63.907,112.532 M71.76,116.555c-4.14,7.799-8.186,15.025-11.923,21.664l0,0
	c20.665-8.658,42.909-14.197,64.084-18.136l0,0c-2.848-1.965-5.608-4.047-8.209-6.243l0,0
	c-11.659-9.872-20.549-22.189-26.994-35.149l0,0C84.634,89.701,79.776,101.398,71.76,116.555"/>
</svg>
