<?xml version="1.0" encoding="utf-8"?>
<!-- Generator: Adobe Illustrator 16.0.0, SVG Export Plug-In . SVG Version: 6.00 Build 0)  -->
<!DOCTYPE svg PUBLIC "-//W3C//DTD SVG 1.1//EN" "http://www.w3.org/Graphics/SVG/1.1/DTD/svg11.dtd">
<svg version="1.1" id="Layer_1" xmlns="http://www.w3.org/2000/svg" xmlns:xlink="http://www.w3.org/1999/xlink" x="0px" y="0px"
	 width="200px" height="137.77px" viewBox="0 0 200 137.77" enable-background="new 0 0 200 137.77" xml:space="preserve">
<path fill="#B5E3F1" d="M38.59,20.865c0,3.708-1.492,7.063-3.908,9.464c-2.417,2.431-5.739,3.936-9.417,3.936
	c-3.691,0-7.001-1.476-9.417-3.891c-2.416-2.416-3.909-5.74-3.909-9.416c0-3.692,1.494-7.017,3.909-9.433
	c2.416-2.417,5.74-3.892,9.417-3.892c3.694,0,7.017,1.445,9.433,3.847c1.2,1.214,2.168,2.677,2.846,4.292
	C38.22,17.388,38.59,19.125,38.59,20.865z"/>
<ellipse fill="#429BB1" cx="25.239" cy="20.922" rx="4.404" ry="4.583"/>
<path fill="#429BB1" d="M44.621,12.817c-1.062-2.506-2.616-4.74-4.507-6.647C36.328,2.387,31.067,0,25.265,0
	c-5.8,0-11.047,2.338-14.848,6.139C7.524,9.033,5.461,12.772,4.663,16.94H4.647c-4.277,0-4.617,3.447-4.632,4.126
	C0.015,21.082,0,21.082,0,21.082V136.23c0,0.233,0.108,0.464,0.2,0.647c0.139,0.275,0.37,0.507,0.616,0.644
	c0.246,0.159,0.539,0.248,0.862,0.248c0.2,0,0.417-0.029,0.584-0.107c0.278-0.105,0.478-0.277,0.663-0.523S3.2,136.586,3.2,136.23
	V24.895c0.338,0.063,0.599,0.137,0.894,0.156v-0.048l0.029,0.048h0.524c0.814,4.247,2.877,7.939,5.754,10.815
	c3.801,3.802,9.063,6.2,14.863,6.2c5.785,0,11.049-2.338,14.85-6.14c3.799-3.798,6.153-9.09,6.153-14.83
	C46.267,18.143,45.684,15.342,44.621,12.817z M4.446,22.034c-0.122,0-0.244-0.03-0.353-0.078v0.032L3.94,21.926l-0.203-0.184
	c-0.014,0-0.028-0.015-0.044-0.029l-0.016-0.019c-0.047-0.03-0.061-0.09-0.077-0.123c-0.125-0.168-0.214-0.367-0.214-0.598
	c0-0.586,0.475-1.046,1.06-1.046c0.585,0,1.062,0.46,1.062,1.046C5.508,21.557,5.032,22.034,4.446,22.034z M15.848,30.374
	c-2.416-2.416-3.909-5.74-3.909-9.416c0-3.692,1.494-7.017,3.909-9.433c2.416-2.417,5.74-3.892,9.417-3.892
	c3.694,0,7.017,1.445,9.433,3.847c1.2,1.214,2.168,2.677,2.846,4.292c0.676,1.616,1.046,3.354,1.046,5.093
	c0,3.708-1.492,7.063-3.908,9.464c-2.417,2.431-5.739,3.936-9.417,3.936C21.573,34.265,18.264,32.789,15.848,30.374z"/>
<g>
	<path fill="#B5E3F1" d="M15.66,80.544V57.541h3.386c0.716,0,1.187,0.336,1.413,1.008l0.357,1.704
		c0.405-0.447,0.825-0.859,1.267-1.232c0.44-0.374,0.913-0.694,1.412-0.965c0.504-0.269,1.041-0.48,1.616-0.638
		c0.573-0.157,1.206-0.236,1.895-0.236c1.45,0,2.644,0.394,3.577,1.178c0.935,0.783,1.632,1.826,2.096,3.127
		c0.361-0.762,0.806-1.415,1.346-1.961c0.536-0.545,1.127-0.991,1.769-1.333c0.644-0.343,1.328-0.599,2.05-0.763
		c0.728-0.165,1.457-0.247,2.19-0.247c1.272,0,2.398,0.194,3.384,0.583c0.988,0.391,1.818,0.958,2.489,1.704
		c0.675,0.748,1.186,1.661,1.535,2.736c0.352,1.076,0.529,2.31,0.529,3.7v14.641h-5.539V65.903c0-1.465-0.321-2.567-0.962-3.308
		c-0.644-0.739-1.583-1.11-2.825-1.11c-0.571,0-1.095,0.099-1.584,0.292c-0.486,0.194-0.909,0.475-1.277,0.841
		c-0.367,0.367-0.655,0.825-0.862,1.377c-0.212,0.554-0.314,1.19-0.314,1.906v14.641h-5.562V65.903c0-1.541-0.311-2.66-0.929-3.363
		c-0.623-0.703-1.538-1.055-2.749-1.055c-0.792,0-1.537,0.2-2.23,0.595c-0.694,0.396-1.343,0.938-1.937,1.626v16.837H15.66z"/>
	<path fill="#B5E3F1" d="M60.77,86.866c-0.164,0.39-0.376,0.685-0.639,0.887c-0.259,0.201-0.659,0.302-1.198,0.302h-4.127
		l4.307-9.215l-9.306-21.3h4.843c0.449,0,0.792,0.104,1.032,0.314c0.238,0.208,0.417,0.448,0.538,0.717l4.911,11.928
		c0.165,0.389,0.308,0.792,0.424,1.212c0.121,0.418,0.227,0.834,0.314,1.255c0.119-0.435,0.251-0.853,0.393-1.255
		c0.142-0.407,0.297-0.815,0.461-1.234l4.619-11.906c0.116-0.3,0.318-0.545,0.59-0.741c0.278-0.193,0.59-0.29,0.932-0.29h4.441
		L60.77,86.866z"/>
</g>
<g>
	<path fill="#429BB1" d="M15.66,124.822V97.537h4.016c0.848,0,1.407,0.4,1.676,1.196l0.424,2.021c0.48-0.529,0.978-1.02,1.501-1.462
		c0.524-0.442,1.082-0.823,1.676-1.144c0.598-0.318,1.233-0.57,1.918-0.759c0.679-0.185,1.428-0.277,2.245-0.277
		c1.72,0,3.134,0.466,4.242,1.395c1.108,0.931,1.935,2.167,2.486,3.71c0.427-0.904,0.957-1.678,1.597-2.328
		c0.636-0.646,1.337-1.175,2.099-1.582c0.761-0.407,1.575-0.708,2.433-0.903c0.861-0.194,1.727-0.292,2.597-0.292
		c1.506,0,2.845,0.229,4.013,0.69c1.173,0.463,2.156,1.136,2.952,2.021c0.801,0.886,1.406,1.97,1.823,3.244
		c0.415,1.277,0.627,2.74,0.627,4.39v17.366h-6.57v-17.366c0-1.738-0.382-3.044-1.144-3.923c-0.761-0.878-1.878-1.316-3.351-1.316
		c-0.675,0-1.299,0.117-1.877,0.347c-0.575,0.231-1.078,0.563-1.515,0.997c-0.433,0.435-0.775,0.977-1.021,1.634
		c-0.252,0.659-0.373,1.412-0.373,2.262v17.366h-6.596v-17.366c0-1.827-0.368-3.155-1.105-3.988
		c-0.735-0.832-1.821-1.251-3.259-1.251c-0.939,0-1.821,0.235-2.645,0.705c-0.822,0.471-1.593,1.112-2.298,1.929v19.972H15.66z"/>
	<path fill="#429BB1" d="M81.825,124.822h-2.954c-0.623,0-1.108-0.095-1.461-0.279c-0.354-0.186-0.625-0.563-0.797-1.129
		l-0.588-1.941c-0.689,0.62-1.368,1.164-2.035,1.633c-0.662,0.472-1.349,0.865-2.06,1.184c-0.71,0.32-1.462,0.56-2.259,0.72
		c-0.797,0.159-1.684,0.239-2.657,0.239c-1.156,0-2.216-0.155-3.194-0.467c-0.975-0.313-1.814-0.78-2.512-1.4
		c-0.701-0.624-1.246-1.397-1.636-2.322c-0.388-0.926-0.583-2.002-0.583-3.229c0-1.032,0.268-2.048,0.81-3.057
		c0.54-1.003,1.44-1.91,2.701-2.719c1.255-0.811,2.934-1.481,5.025-2.015c2.091-0.533,4.688-0.802,7.791-0.802v-1.607
		c0-1.84-0.385-3.201-1.154-4.086c-0.771-0.887-1.891-1.327-3.363-1.327c-1.064,0-1.953,0.126-2.664,0.372
		c-0.708,0.248-1.323,0.529-1.848,0.837c-0.523,0.313-1.004,0.592-1.45,0.838c-0.441,0.25-0.93,0.372-1.462,0.372
		c-0.441,0-0.822-0.115-1.142-0.343c-0.317-0.232-0.576-0.516-0.771-0.853l-1.195-2.101c3.139-2.872,6.921-4.31,11.353-4.31
		c1.597,0,3.017,0.263,4.268,0.787c1.25,0.521,2.311,1.249,3.177,2.18c0.871,0.929,1.532,2.042,1.983,3.336
		c0.454,1.295,0.679,2.715,0.679,4.256V124.822z M69.061,120.728c0.67,0,1.294-0.063,1.86-0.184c0.567-0.122,1.105-0.306,1.606-0.55
		c0.506-0.246,0.995-0.546,1.463-0.902c0.472-0.359,0.944-0.781,1.424-1.271v-4.565c-1.913,0-3.515,0.118-4.799,0.361
		c-1.286,0.24-2.317,0.549-3.1,0.923c-0.778,0.374-1.333,0.813-1.662,1.313c-0.328,0.499-0.489,1.045-0.489,1.634
		c0,1.16,0.337,1.991,1.021,2.49C67.069,120.476,67.96,120.728,69.061,120.728z"/>
	<path fill="#429BB1" d="M88.287,124.822V97.537h3.856c0.676,0,1.144,0.124,1.412,0.372c0.265,0.246,0.441,0.674,0.528,1.277
		l0.404,3.297c0.974-1.684,2.116-3.014,3.429-3.989c1.31-0.975,2.782-1.464,4.412-1.464c1.347,0,2.465,0.311,3.353,0.931
		l-0.85,4.921c-0.056,0.319-0.169,0.544-0.346,0.679c-0.176,0.133-0.421,0.2-0.72,0.2c-0.267,0-0.632-0.063-1.091-0.188
		c-0.462-0.122-1.073-0.187-1.834-0.187c-1.364,0-2.536,0.377-3.51,1.131c-0.973,0.753-1.799,1.855-2.471,3.312v16.993H88.287z"/>
	<path fill="#429BB1" d="M119.458,97.058c1.167,0,2.266,0.12,3.297,0.359c1.026,0.239,1.969,0.59,2.818,1.051h7.847v2.446
		c0,0.409-0.109,0.727-0.32,0.957c-0.213,0.231-0.576,0.391-1.09,0.479l-2.446,0.453c0.178,0.461,0.317,0.947,0.411,1.46
		c0.1,0.517,0.147,1.057,0.147,1.625c0,1.347-0.273,2.564-0.815,3.656c-0.54,1.088-1.283,2.017-2.233,2.777
		c-0.945,0.765-2.072,1.351-3.374,1.77c-1.303,0.414-2.72,0.625-4.241,0.625c-1.027,0-2.032-0.098-3.005-0.294
		c-0.853,0.52-1.277,1.099-1.277,1.743c0,0.553,0.252,0.96,0.757,1.218c0.507,0.261,1.17,0.44,1.995,0.549
		c0.823,0.107,1.759,0.161,2.806,0.161c1.049,0,2.116,0.045,3.217,0.134c1.099,0.089,2.173,0.244,3.221,0.468
		c1.047,0.221,1.982,0.573,2.804,1.051c0.825,0.481,1.489,1.137,1.995,1.964c0.507,0.827,0.759,1.889,0.759,3.188
		c0,1.21-0.299,2.383-0.893,3.521c-0.593,1.138-1.454,2.151-2.579,3.042c-1.125,0.888-2.503,1.604-4.134,2.146
		c-1.633,0.544-3.493,0.814-5.584,0.814c-2.08,0-3.875-0.2-5.403-0.599c-1.522-0.399-2.787-0.933-3.786-1.597
		c-1.005-0.662-1.754-1.429-2.247-2.3c-0.497-0.868-0.745-1.772-0.745-2.713c0-1.276,0.391-2.35,1.171-3.216
		c0.778-0.87,1.86-1.562,3.244-2.074c-0.674-0.374-1.216-0.87-1.622-1.492c-0.411-0.619-0.614-1.427-0.614-2.418
		c0-0.407,0.073-0.831,0.216-1.263c0.139-0.435,0.359-0.865,0.649-1.291c0.295-0.426,0.663-0.827,1.104-1.21
		c0.441-0.382,0.965-0.722,1.57-1.023c-1.385-0.746-2.471-1.738-3.259-2.979c-0.789-1.24-1.183-2.694-1.183-4.359
		c0-1.352,0.269-2.568,0.81-3.658c0.541-1.089,1.295-2.023,2.258-2.793c0.967-0.771,2.113-1.36,3.434-1.767
		C116.456,97.264,117.897,97.058,119.458,97.058z M126.662,125.966c0-0.542-0.159-0.982-0.475-1.327
		c-0.319-0.346-0.759-0.61-1.304-0.801c-0.553-0.19-1.194-0.331-1.929-0.424c-0.738-0.089-1.516-0.135-2.344-0.135
		c-0.821,0-1.675,0-2.549,0c-0.879,0-1.727-0.099-2.542-0.291c-0.743,0.407-1.34,0.891-1.796,1.449
		c-0.449,0.557-0.679,1.201-0.679,1.928c0,0.479,0.122,0.926,0.36,1.342c0.241,0.416,0.62,0.777,1.146,1.077
		c0.52,0.302,1.2,0.538,2.034,0.707c0.831,0.166,1.853,0.25,3.057,0.25c1.225,0,2.277-0.095,3.164-0.283
		c0.887-0.191,1.619-0.456,2.194-0.787c0.575-0.337,1.001-0.734,1.264-1.195C126.529,127.013,126.662,126.51,126.662,125.966z
		 M119.458,110.515c0.812,0,1.521-0.111,2.129-0.333c0.6-0.223,1.103-0.527,1.501-0.916c0.399-0.393,0.7-0.86,0.905-1.41
		c0.203-0.552,0.304-1.151,0.304-1.808c0-1.35-0.404-2.417-1.209-3.205c-0.81-0.788-2.017-1.185-3.63-1.185
		c-1.616,0-2.824,0.396-3.633,1.185c-0.806,0.788-1.207,1.855-1.207,3.205c0,0.638,0.099,1.232,0.306,1.781
		c0.205,0.548,0.504,1.021,0.901,1.422c0.401,0.399,0.905,0.708,1.519,0.931C117.954,110.403,118.66,110.515,119.458,110.515z"/>
	<path fill="#429BB1" d="M145.519,89.583c0,0.57-0.113,1.099-0.346,1.598c-0.229,0.495-0.538,0.93-0.919,1.303
		c-0.38,0.373-0.826,0.669-1.342,0.89c-0.516,0.223-1.063,0.332-1.649,0.332c-0.566,0-1.103-0.109-1.609-0.332
		c-0.503-0.221-0.944-0.518-1.315-0.89c-0.373-0.373-0.667-0.808-0.888-1.303c-0.226-0.499-0.334-1.028-0.334-1.598
		c0-0.584,0.108-1.134,0.334-1.646c0.221-0.515,0.515-0.959,0.888-1.331c0.371-0.373,0.813-0.669,1.315-0.891
		c0.507-0.222,1.043-0.332,1.609-0.332c0.586,0,1.134,0.109,1.649,0.332s0.962,0.518,1.342,0.891
		c0.381,0.372,0.689,0.816,0.919,1.331C145.405,88.449,145.519,88.999,145.519,89.583z M144.536,97.537v27.285h-6.571V97.537
		H144.536z"/>
	<path fill="#429BB1" d="M151.955,124.822V97.537h4.016c0.849,0,1.407,0.4,1.675,1.196l0.45,2.156
		c0.552-0.568,1.13-1.083,1.744-1.543c0.612-0.462,1.257-0.858,1.939-1.197c0.685-0.335,1.417-0.592,2.194-0.77
		c0.779-0.178,1.634-0.267,2.556-0.267c1.489,0,2.81,0.251,3.96,0.757c1.157,0.507,2.116,1.214,2.886,2.128
		c0.771,0.912,1.356,2.004,1.759,3.272c0.397,1.266,0.597,2.66,0.597,4.188v17.366h-6.57v-17.366c0-1.666-0.385-2.955-1.156-3.869
		c-0.77-0.913-1.93-1.37-3.471-1.37c-1.135,0-2.199,0.258-3.19,0.771c-0.995,0.513-1.934,1.216-2.817,2.099v19.735H151.955z"/>
	<path fill="#429BB1" d="M198.39,102.855c-0.176,0.283-0.363,0.481-0.557,0.6c-0.196,0.114-0.446,0.17-0.744,0.17
		c-0.321,0-0.662-0.087-1.026-0.263c-0.364-0.178-0.785-0.377-1.266-0.602c-0.477-0.218-1.021-0.418-1.635-0.596
		c-0.611-0.178-1.335-0.267-2.165-0.267c-1.294,0-2.314,0.276-3.06,0.824c-0.745,0.549-1.118,1.268-1.118,2.153
		c0,0.585,0.191,1.079,0.573,1.477c0.381,0.398,0.888,0.748,1.514,1.05c0.632,0.303,1.346,0.573,2.144,0.813
		c0.797,0.238,1.613,0.501,2.445,0.784c0.836,0.285,1.649,0.607,2.444,0.97c0.803,0.364,1.516,0.825,2.145,1.384
		c0.626,0.558,1.134,1.226,1.515,2.008c0.381,0.779,0.57,1.721,0.57,2.818c0,1.313-0.237,2.524-0.717,3.633
		c-0.477,1.106-1.178,2.063-2.101,2.87c-0.923,0.809-2.06,1.436-3.416,1.887c-1.358,0.452-2.912,0.68-4.669,0.68
		c-0.939,0-1.856-0.085-2.753-0.254c-0.892-0.168-1.754-0.401-2.58-0.705c-0.823-0.3-1.585-0.655-2.286-1.062
		c-0.701-0.409-1.315-0.852-1.848-1.331l1.516-2.5c0.193-0.302,0.429-0.531,0.691-0.691c0.265-0.159,0.603-0.239,1.01-0.239
		c0.41,0,0.796,0.116,1.159,0.346s0.783,0.479,1.264,0.744c0.477,0.267,1.038,0.517,1.688,0.746
		c0.646,0.231,1.468,0.346,2.459,0.346c0.778,0,1.45-0.093,2.007-0.279c0.559-0.187,1.019-0.431,1.383-0.73
		c0.362-0.302,0.632-0.651,0.8-1.054c0.169-0.397,0.251-0.809,0.251-1.233c0-0.641-0.19-1.162-0.571-1.569s-0.887-0.763-1.515-1.064
		c-0.632-0.304-1.352-0.571-2.156-0.811c-0.805-0.242-1.631-0.503-2.472-0.786c-0.844-0.283-1.668-0.614-2.476-0.997
		c-0.805-0.382-1.522-0.864-2.151-1.447c-0.632-0.587-1.138-1.305-1.518-2.156c-0.383-0.851-0.573-1.88-0.573-3.084
		c0-1.116,0.226-2.183,0.667-3.192c0.44-1.009,1.095-1.893,1.956-2.645c0.856-0.753,1.931-1.358,3.216-1.81
		c1.286-0.454,2.771-0.677,4.453-0.677c1.88,0,3.594,0.309,5.137,0.931c1.539,0.622,2.825,1.436,3.855,2.444L198.39,102.855z"/>
</g>
</svg>
