<?xml version="1.0" encoding="utf-8"?>
<!-- Generator: Adobe Illustrator 16.0.0, SVG Export Plug-In . SVG Version: 6.00 Build 0)  -->
<!DOCTYPE svg PUBLIC "-//W3C//DTD SVG 1.1//EN" "http://www.w3.org/Graphics/SVG/1.1/DTD/svg11.dtd">
<svg version="1.1" id="Layer_1" xmlns="http://www.w3.org/2000/svg" xmlns:xlink="http://www.w3.org/1999/xlink" x="0px" y="0px"
	 width="200px" height="137.77px" viewBox="0 0 200 137.77" enable-background="new 0 0 200 137.77" xml:space="preserve">
<path fill="#B5E3F1" d="M38.59,20.865c0,3.708-1.492,7.063-3.908,9.464c-2.417,2.431-5.739,3.936-9.417,3.936
	c-3.691,0-7.001-1.476-9.417-3.891c-2.416-2.416-3.909-5.74-3.909-9.416c0-3.692,1.494-7.018,3.909-9.434
	c2.416-2.417,5.74-3.892,9.417-3.892c3.694,0,7.017,1.445,9.433,3.847c1.2,1.214,2.168,2.678,2.846,4.292
	C38.22,17.388,38.59,19.125,38.59,20.865z"/>
<ellipse fill="#429BB1" cx="25.239" cy="20.922" rx="4.404" ry="4.583"/>
<path fill="#429BB1" d="M44.621,12.817c-1.062-2.506-2.616-4.739-4.507-6.646C36.328,2.387,31.067,0,25.265,0
	c-5.8,0-11.047,2.338-14.848,6.139C7.524,9.033,5.461,12.772,4.663,16.94H4.647c-4.277,0-4.617,3.447-4.632,4.126
	C0.015,21.082,0,21.082,0,21.082V136.23c0,0.233,0.108,0.464,0.2,0.647c0.139,0.274,0.37,0.507,0.616,0.644
	c0.246,0.159,0.539,0.248,0.862,0.248c0.2,0,0.417-0.028,0.584-0.106c0.278-0.105,0.478-0.277,0.663-0.523
	c0.185-0.246,0.275-0.553,0.275-0.909V24.895c0.338,0.063,0.599,0.138,0.894,0.156v-0.048l0.029,0.048h0.524
	c0.814,4.247,2.877,7.939,5.754,10.815c3.801,3.802,9.063,6.199,14.863,6.199c5.785,0,11.049-2.338,14.85-6.14
	c3.799-3.798,6.153-9.09,6.153-14.83C46.267,18.143,45.684,15.342,44.621,12.817z M4.446,22.034c-0.122,0-0.244-0.03-0.353-0.078
	v0.031L3.94,21.926l-0.203-0.184c-0.014,0-0.028-0.016-0.044-0.029l-0.016-0.02c-0.047-0.029-0.061-0.09-0.077-0.123
	c-0.125-0.168-0.214-0.366-0.214-0.598c0-0.586,0.475-1.046,1.06-1.046c0.585,0,1.062,0.46,1.062,1.046
	C5.508,21.557,5.032,22.034,4.446,22.034z M15.848,30.374c-2.416-2.416-3.909-5.74-3.909-9.416c0-3.692,1.494-7.018,3.909-9.434
	c2.416-2.417,5.74-3.892,9.417-3.892c3.694,0,7.017,1.445,9.433,3.847c1.2,1.214,2.168,2.678,2.846,4.292
	c0.676,1.616,1.046,3.354,1.046,5.094c0,3.708-1.492,7.063-3.908,9.464c-2.417,2.431-5.739,3.936-9.417,3.936
	C21.573,34.265,18.264,32.789,15.848,30.374z"/>
<g>
	<path fill="#429BB1" d="M15.66,124.822V97.537h4.016c0.848,0,1.407,0.399,1.676,1.195l0.424,2.021
		c0.48-0.529,0.978-1.021,1.501-1.462c0.524-0.442,1.082-0.823,1.676-1.145c0.598-0.317,1.233-0.569,1.918-0.759
		c0.679-0.185,1.428-0.277,2.245-0.277c1.72,0,3.134,0.467,4.242,1.396c1.108,0.931,1.935,2.167,2.486,3.71
		c0.427-0.904,0.957-1.678,1.597-2.328c0.636-0.646,1.337-1.175,2.099-1.582c0.761-0.407,1.575-0.708,2.433-0.903
		c0.861-0.193,1.727-0.292,2.597-0.292c1.506,0,2.845,0.229,4.013,0.69c1.173,0.463,2.156,1.136,2.952,2.021
		c0.801,0.886,1.406,1.97,1.823,3.243c0.415,1.277,0.627,2.74,0.627,4.391v17.366h-6.57v-17.366c0-1.738-0.382-3.044-1.144-3.923
		c-0.761-0.878-1.878-1.316-3.351-1.316c-0.675,0-1.299,0.117-1.877,0.347c-0.575,0.231-1.078,0.563-1.515,0.997
		c-0.433,0.436-0.775,0.978-1.021,1.634c-0.252,0.659-0.373,1.412-0.373,2.263v17.366h-6.596v-17.366
		c0-1.827-0.368-3.155-1.105-3.988c-0.735-0.832-1.821-1.251-3.259-1.251c-0.939,0-1.821,0.235-2.645,0.705
		c-0.822,0.471-1.593,1.112-2.298,1.929v19.973H15.66V124.822z"/>
	<path fill="#429BB1" d="M81.825,124.822h-2.954c-0.623,0-1.108-0.095-1.461-0.278c-0.354-0.187-0.625-0.563-0.797-1.129
		l-0.588-1.941c-0.689,0.62-1.368,1.164-2.035,1.633c-0.662,0.473-1.349,0.865-2.06,1.185c-0.71,0.319-1.462,0.56-2.259,0.72
		c-0.797,0.159-1.684,0.239-2.657,0.239c-1.156,0-2.216-0.155-3.194-0.467c-0.975-0.313-1.814-0.78-2.512-1.4
		c-0.701-0.624-1.246-1.397-1.636-2.322c-0.388-0.926-0.583-2.002-0.583-3.229c0-1.032,0.268-2.048,0.81-3.058
		c0.54-1.003,1.44-1.91,2.701-2.719c1.255-0.811,2.934-1.48,5.025-2.015c2.091-0.533,4.688-0.803,7.791-0.803v-1.606
		c0-1.84-0.385-3.201-1.154-4.086c-0.771-0.887-1.891-1.327-3.363-1.327c-1.064,0-1.953,0.126-2.664,0.372
		c-0.708,0.248-1.323,0.529-1.848,0.837c-0.523,0.313-1.004,0.592-1.45,0.838c-0.441,0.25-0.93,0.372-1.462,0.372
		c-0.441,0-0.822-0.115-1.142-0.343c-0.317-0.232-0.576-0.517-0.771-0.854l-1.195-2.101c3.139-2.872,6.921-4.311,11.353-4.311
		c1.597,0,3.017,0.264,4.268,0.787c1.25,0.521,2.311,1.249,3.177,2.181c0.871,0.929,1.532,2.042,1.983,3.336
		c0.454,1.295,0.679,2.715,0.679,4.256v17.232H81.825z M69.061,120.728c0.67,0,1.294-0.063,1.86-0.184
		c0.567-0.122,1.105-0.307,1.606-0.55c0.506-0.246,0.995-0.546,1.463-0.902c0.472-0.359,0.944-0.781,1.424-1.271v-4.564
		c-1.913,0-3.515,0.118-4.799,0.361c-1.286,0.239-2.317,0.549-3.1,0.923c-0.778,0.374-1.333,0.813-1.662,1.313
		c-0.328,0.499-0.489,1.045-0.489,1.634c0,1.16,0.337,1.991,1.021,2.49C67.069,120.476,67.96,120.728,69.061,120.728z"/>
	<path fill="#429BB1" d="M88.287,124.822V97.537h3.856c0.676,0,1.144,0.124,1.412,0.372c0.265,0.245,0.441,0.674,0.528,1.276
		l0.404,3.297c0.974-1.684,2.116-3.014,3.429-3.988c1.31-0.976,2.782-1.465,4.412-1.465c1.347,0,2.465,0.312,3.354,0.932
		l-0.851,4.921c-0.056,0.319-0.169,0.544-0.347,0.679c-0.176,0.133-0.42,0.2-0.719,0.2c-0.268,0-0.633-0.063-1.092-0.188
		c-0.462-0.122-1.072-0.188-1.834-0.188c-1.364,0-2.536,0.377-3.51,1.131c-0.973,0.753-1.799,1.855-2.471,3.313v16.992H88.287z"/>
	<path fill="#429BB1" d="M119.458,97.058c1.167,0,2.267,0.12,3.297,0.359c1.026,0.239,1.97,0.59,2.818,1.051h7.847v2.446
		c0,0.409-0.109,0.727-0.32,0.957c-0.213,0.23-0.576,0.391-1.09,0.479l-2.445,0.453c0.178,0.461,0.316,0.947,0.41,1.46
		c0.101,0.517,0.147,1.057,0.147,1.625c0,1.347-0.272,2.564-0.815,3.656c-0.539,1.088-1.283,2.017-2.232,2.776
		c-0.945,0.766-2.072,1.352-3.374,1.771c-1.304,0.414-2.72,0.625-4.241,0.625c-1.027,0-2.032-0.098-3.005-0.294
		c-0.853,0.52-1.277,1.099-1.277,1.743c0,0.553,0.253,0.96,0.757,1.218c0.508,0.261,1.17,0.44,1.996,0.549
		c0.822,0.107,1.758,0.161,2.805,0.161c1.05,0,2.117,0.045,3.218,0.134c1.099,0.089,2.173,0.244,3.221,0.468
		c1.048,0.222,1.981,0.573,2.804,1.052c0.825,0.48,1.489,1.137,1.996,1.964c0.506,0.827,0.758,1.889,0.758,3.188
		c0,1.21-0.299,2.384-0.893,3.521c-0.593,1.138-1.454,2.15-2.579,3.042c-1.125,0.888-2.503,1.604-4.134,2.146
		c-1.633,0.544-3.493,0.814-5.584,0.814c-2.08,0-3.875-0.2-5.402-0.599c-1.522-0.399-2.787-0.934-3.787-1.598
		c-1.004-0.662-1.754-1.429-2.246-2.3c-0.498-0.868-0.746-1.772-0.746-2.713c0-1.276,0.392-2.351,1.172-3.216
		c0.777-0.87,1.859-1.563,3.244-2.074c-0.674-0.374-1.217-0.87-1.623-1.492c-0.41-0.619-0.613-1.427-0.613-2.418
		c0-0.407,0.072-0.831,0.216-1.263c0.14-0.436,0.358-0.865,0.649-1.291c0.295-0.426,0.662-0.827,1.104-1.21
		c0.441-0.382,0.965-0.723,1.57-1.023c-1.385-0.746-2.471-1.738-3.26-2.979s-1.182-2.694-1.182-4.359
		c0-1.352,0.268-2.568,0.809-3.658c0.541-1.089,1.296-2.022,2.259-2.793c0.967-0.771,2.112-1.359,3.435-1.767
		C116.456,97.264,117.896,97.058,119.458,97.058z M126.662,125.966c0-0.542-0.159-0.982-0.475-1.327
		c-0.319-0.346-0.76-0.61-1.305-0.801c-0.553-0.19-1.193-0.331-1.929-0.424c-0.738-0.089-1.517-0.136-2.345-0.136
		c-0.82,0-1.674,0-2.549,0c-0.879,0-1.727-0.099-2.541-0.291c-0.744,0.407-1.34,0.892-1.797,1.449
		c-0.449,0.558-0.679,1.201-0.679,1.929c0,0.479,0.122,0.926,0.36,1.342c0.24,0.416,0.619,0.776,1.146,1.077
		c0.521,0.302,1.2,0.537,2.034,0.707c0.831,0.166,1.854,0.25,3.057,0.25c1.226,0,2.277-0.096,3.164-0.283
		c0.887-0.191,1.619-0.456,2.194-0.787c0.575-0.337,1.001-0.734,1.265-1.195C126.529,127.013,126.662,126.51,126.662,125.966z
		 M119.458,110.515c0.812,0,1.521-0.111,2.129-0.333c0.601-0.223,1.103-0.527,1.501-0.916c0.398-0.393,0.7-0.859,0.905-1.41
		c0.202-0.552,0.304-1.15,0.304-1.808c0-1.35-0.404-2.417-1.209-3.205c-0.811-0.788-2.018-1.185-3.63-1.185
		c-1.616,0-2.824,0.396-3.633,1.185c-0.806,0.788-1.207,1.855-1.207,3.205c0,0.638,0.099,1.231,0.306,1.781
		c0.205,0.548,0.504,1.021,0.901,1.422c0.401,0.398,0.905,0.708,1.519,0.931C117.954,110.403,118.66,110.515,119.458,110.515z"/>
	<path fill="#429BB1" d="M145.52,89.583c0,0.569-0.113,1.099-0.347,1.598c-0.229,0.495-0.538,0.93-0.919,1.303
		c-0.38,0.373-0.826,0.669-1.342,0.891c-0.516,0.223-1.063,0.332-1.648,0.332c-0.566,0-1.104-0.109-1.609-0.332
		c-0.504-0.222-0.944-0.519-1.315-0.891c-0.373-0.373-0.667-0.808-0.888-1.303c-0.227-0.499-0.334-1.028-0.334-1.598
		c0-0.584,0.107-1.134,0.334-1.646c0.221-0.515,0.515-0.959,0.888-1.331c0.371-0.373,0.813-0.669,1.315-0.891
		c0.507-0.222,1.043-0.332,1.609-0.332c0.586,0,1.133,0.109,1.648,0.332c0.515,0.223,0.962,0.518,1.342,0.891
		c0.381,0.372,0.689,0.816,0.919,1.331C145.404,88.449,145.52,88.999,145.52,89.583z M144.536,97.537v27.285h-6.571V97.537H144.536z
		"/>
	<path fill="#429BB1" d="M151.955,124.822V97.537h4.016c0.85,0,1.407,0.399,1.676,1.195l0.449,2.156
		c0.553-0.568,1.131-1.083,1.744-1.543c0.612-0.462,1.258-0.858,1.939-1.197c0.685-0.335,1.416-0.592,2.193-0.77
		c0.779-0.178,1.635-0.268,2.557-0.268c1.488,0,2.81,0.251,3.96,0.758c1.157,0.507,2.116,1.214,2.886,2.128
		c0.771,0.912,1.355,2.004,1.759,3.271c0.397,1.267,0.597,2.66,0.597,4.188v17.366h-6.569v-17.366c0-1.666-0.386-2.955-1.156-3.869
		c-0.771-0.913-1.93-1.37-3.471-1.37c-1.136,0-2.199,0.258-3.19,0.771c-0.994,0.513-1.934,1.216-2.816,2.099v19.735h-6.572V124.822z
		"/>
	<path fill="#429BB1" d="M198.391,102.855c-0.177,0.283-0.363,0.481-0.558,0.601c-0.196,0.113-0.446,0.17-0.744,0.17
		c-0.321,0-0.662-0.087-1.026-0.264c-0.363-0.178-0.785-0.377-1.266-0.602c-0.477-0.218-1.021-0.418-1.635-0.596
		c-0.611-0.179-1.335-0.268-2.165-0.268c-1.294,0-2.313,0.276-3.06,0.824c-0.746,0.549-1.119,1.269-1.119,2.153
		c0,0.585,0.191,1.079,0.574,1.477c0.381,0.398,0.887,0.748,1.514,1.05c0.632,0.304,1.346,0.573,2.144,0.813
		c0.798,0.238,1.613,0.501,2.445,0.784c0.836,0.285,1.649,0.606,2.444,0.97c0.803,0.364,1.516,0.825,2.145,1.384
		c0.626,0.559,1.134,1.227,1.516,2.008c0.381,0.779,0.569,1.722,0.569,2.818c0,1.313-0.237,2.524-0.717,3.633
		c-0.478,1.106-1.179,2.063-2.101,2.87c-0.924,0.81-2.061,1.437-3.416,1.887c-1.358,0.452-2.912,0.681-4.67,0.681
		c-0.938,0-1.855-0.085-2.752-0.254c-0.893-0.168-1.755-0.401-2.58-0.705c-0.824-0.3-1.586-0.655-2.287-1.063
		c-0.701-0.409-1.314-0.852-1.848-1.331l1.516-2.5c0.193-0.302,0.43-0.53,0.691-0.69c0.266-0.159,0.604-0.239,1.01-0.239
		c0.41,0,0.797,0.116,1.159,0.346c0.363,0.23,0.783,0.479,1.265,0.744c0.477,0.268,1.037,0.518,1.688,0.746
		c0.646,0.231,1.469,0.346,2.459,0.346c0.778,0,1.45-0.093,2.007-0.278c0.56-0.188,1.019-0.432,1.384-0.73
		c0.361-0.302,0.631-0.65,0.799-1.054c0.17-0.397,0.252-0.81,0.252-1.233c0-0.641-0.19-1.162-0.571-1.568
		c-0.381-0.407-0.888-0.764-1.515-1.064c-0.633-0.304-1.353-0.571-2.156-0.811c-0.805-0.242-1.631-0.503-2.473-0.786
		c-0.844-0.283-1.668-0.614-2.476-0.997c-0.805-0.382-1.522-0.864-2.151-1.447c-0.631-0.587-1.138-1.305-1.518-2.156
		c-0.383-0.851-0.572-1.88-0.572-3.084c0-1.115,0.225-2.183,0.666-3.191c0.44-1.01,1.096-1.894,1.956-2.646
		c0.856-0.753,1.931-1.357,3.216-1.81c1.287-0.454,2.771-0.677,4.453-0.677c1.881,0,3.594,0.309,5.137,0.931
		c1.539,0.622,2.826,1.436,3.855,2.444L198.391,102.855z"/>
</g>
</svg>
